<?xml version="1.0" encoding="utf-8"?>
<!-- Svg Vector Icons : http://www.onlinewebfonts.com/icon -->
<!DOCTYPE svg PUBLIC "-//W3C//DTD SVG 1.1//EN" "http://www.w3.org/Graphics/SVG/1.1/DTD/svg11.dtd">
<svg version="1.1" xmlns="http://www.w3.org/2000/svg" xmlns:xlink="http://www.w3.org/1999/xlink" x="0px" y="0px" viewBox="0 0 1000 1000" enable-background="new 0 0 1000 1000" xml:space="preserve">
<metadata> Svg Vector Icons : http://www.onlinewebfonts.com/icon </metadata>
<g><path d="M663.3,222.3c40.8,0,73.5-32.7,73.5-73.5s-32.7-73.5-73.5-73.5c-40.8,0-73.5,32.7-73.5,73.5S622.5,222.3,663.3,222.3z M785.8,516.3c-114.3,0-204.2,89.8-204.2,204.2s89.8,204.2,204.2,204.2S990,834.8,990,720.5C990,606.2,900.2,516.3,785.8,516.3z M785.8,863.4c-77.6,0-142.9-65.3-142.9-142.9c0-77.6,65.3-142.9,142.9-142.9c77.6,0,142.9,65.3,142.9,142.9C928.8,798.1,863.4,863.4,785.8,863.4z M614.3,434.7h171.5v-73.5H655.2l-77.6-134.8c-12.3-20.4-32.7-32.7-61.3-32.7c-20.4,0-36.8,8.2-49,20.4L316.3,365.3c-12.3,12.2-20.4,28.6-20.4,49c0,24.5,12.2,49,32.7,61.3l138.8,81.7v204.2h73.5V495.9L451,426.5l93.9-93.9L614.3,434.7z M214.2,516.3C99.8,516.3,10,606.2,10,720.5s89.8,204.2,204.2,204.2s204.2-89.8,204.2-204.2C418.3,606.2,328.5,516.3,214.2,516.3z M214.2,863.4c-77.6,0-142.9-65.3-142.9-142.9c0-77.6,65.3-142.9,142.9-142.9s142.9,65.3,142.9,142.9C357.1,798.1,291.8,863.4,214.2,863.4z"/></g>
</svg>